<?xml version="1.0" encoding="utf-8"?>
<!-- Generator: Adobe Illustrator 21.0.2, SVG Export Plug-In . SVG Version: 6.00 Build 0)  -->
<svg version="1.1" id="레이어_1" xmlns="http://www.w3.org/2000/svg" xmlns:xlink="http://www.w3.org/1999/xlink" x="0px"
	 y="0px" width="12px" height="12px" viewBox="0 0 12 12" style="enable-background:new 0 0 12 12;" xml:space="preserve">
<style type="text/css">
	.st0{fill:#36353A;}
</style>
<path class="st0" d="M10,0H2C0.9,0,0,0.9,0,2v8c0,1.1,0.9,2,2,2h8c1.1,0,2-0.9,2-2V2C12,0.9,11.1,0,10,0z M9.2,4.1l-3,4.8
	C6.1,9,6,9.1,5.8,9.1c0,0,0,0,0,0C5.6,9.1,5.5,9,5.4,8.9L3.1,6.1C2.9,5.9,3,5.6,3.2,5.4c0.2-0.2,0.5-0.1,0.7,0.1l1.9,2.3l2.6-4.2
	C8.5,3.3,8.8,3.3,9,3.4C9.3,3.6,9.3,3.9,9.2,4.1z"/>
</svg>
