<svg xmlns="http://www.w3.org/2000/svg" width="11.774" height="11.774" viewBox="0 0 11.774 11.774">
  <path id="빼기_3" data-name="빼기 3" d="M9248.655,565.774h-1.535l-.425-1.7a4.117,4.117,0,0,1-.922-.383l-1.5.906-1.087-1.085.905-1.507a4.033,4.033,0,0,1-.381-.92l-1.707-.425v-1.537l1.707-.423a3.968,3.968,0,0,1,.383-.922l-.907-1.507,1.087-1.085,1.5.9a4.216,4.216,0,0,1,.922-.381l.425-1.7h1.535l.425,1.7a4.113,4.113,0,0,1,.922.386v0l1.5-.9,1.087,1.085-.905,1.507a4.007,4.007,0,0,1,.381.922l1.7.423v1.537l-1.7.425a3.962,3.962,0,0,1-.384.92l.908,1.507-1.087,1.085-1.5-.9a4.356,4.356,0,0,1-.922.381l-.425,1.7Zm-.769-7.727a1.839,1.839,0,1,0,1.839,1.839A1.842,1.842,0,0,0,9247.887,558.047Z" transform="translate(-9241.999 -554)" fill="#1890FF"/>
</svg>
