<svg xmlns="http://www.w3.org/2000/svg" width="12" height="11.467" viewBox="0 0 12 11.467">
  <path id="패스_4886" data-name="패스 4886" d="M524.174,146.335l3.44-.323h0a.239.239,0,0,0,.123-.045.244.244,0,0,0,.081-.1l1.373-3.172a.534.534,0,0,1,.2-.238l.011-.007a.539.539,0,0,1,.781.246l1.37,3.173a.237.237,0,0,0,.2.148l3.44.325h.006a.53.53,0,0,1,.457.37h0a.536.536,0,0,1-.157.572l-2.594,2.283a.241.241,0,0,0-.073.108.256.256,0,0,0-.005.13l.754,3.374a.535.535,0,0,1-.209.554.544.544,0,0,1-.293.1.537.537,0,0,1-.3-.076L529.807,152a.248.248,0,0,0-.125-.037h0a.246.246,0,0,0-.126.036l-2.974,1.759a.542.542,0,0,1-.781-.274.534.534,0,0,1-.02-.309l.757-3.372v0a.24.24,0,0,0-.006-.126.243.243,0,0,0-.073-.108l-2.592-2.285a.538.538,0,0,1,.306-.942Z" transform="translate(-523.684 -142.367)" fill="#36353A" fill-rule="evenodd"/>
</svg>
