<svg id="그룹_5912" data-name="그룹 5912" xmlns="http://www.w3.org/2000/svg" width="100%" height="100%" viewBox="0 0 47 47">
  <path id="패스_4890" data-name="패스 4890" d="M488,1592.5a23.476,23.476,0,1,0,23.5,23.5A23.5,23.5,0,0,0,488,1592.5Z" transform="translate(-464.5 -1592.5)" fill="#656565"/>
  <path id="패스_4891" data-name="패스 4891" d="M484.2,1607.5a17.444,17.444,0,0,0-16.032,9.986,23.51,23.51,0,0,0,32.065,0A17.444,17.444,0,0,0,484.2,1607.5Z" transform="translate(-460.697 -1576.801)" fill="#3b3b3b"/>
  <path id="패스_4892" data-name="패스 4892" d="M486.763,1605.284a7.137,7.137,0,0,1-8.46,7.011c-3.229-.583-5.8-4.079-5.8-7.359v-2.155c0-3.281,2.573-6.777,5.8-7.36a7.137,7.137,0,0,1,8.46,7.011Z" transform="translate(-456.132 -1588.098)" fill="#3b3b3b"/>
</svg>
