<svg id="그룹_5911" data-name="그룹 5911" xmlns="http://www.w3.org/2000/svg" width="100%" height="100%" viewBox="0 0 36 36">
  <path id="패스_4890" data-name="패스 4890" d="M482.5,1592.5a17.981,17.981,0,1,0,18,18A18,18,0,0,0,482.5,1592.5Z" transform="translate(-464.5 -1592.5)" fill="#d3d8e0"/>
  <path id="패스_4891" data-name="패스 4891" d="M480.425,1607.5a13.334,13.334,0,0,0-12.26,7.676,17.911,17.911,0,0,0,24.52,0A13.334,13.334,0,0,0,480.425,1607.5Z" transform="translate(-462.425 -1584.029)" fill="#f6f6f9"/>
  <path id="패스_4892" data-name="패스 4892" d="M483.463,1602.974a5.486,5.486,0,0,1-6.5,5.389,5.956,5.956,0,0,1-4.46-5.657v-1.657a5.956,5.956,0,0,1,4.46-5.657,5.486,5.486,0,0,1,6.5,5.389Z" transform="translate(-459.982 -1589.794)" fill="#f6f6f9"/>
</svg>
