<?xml version="1.0" encoding="utf-8"?>
<!-- Generator: Adobe Illustrator 21.0.2, SVG Export Plug-In . SVG Version: 6.00 Build 0)  -->
<svg version="1.1" id="레이어_1" xmlns="http://www.w3.org/2000/svg" xmlns:xlink="http://www.w3.org/1999/xlink" x="0px"
	 y="0px" width="125px" height="26px" viewBox="0 0 125 26" enable-background="new 0 0 125 26" xml:space="preserve">
<path d="M11.8,20.8c-0.3,0.6-0.8,1.1-1.5,1.4c-0.7,0.4-1.5,0.5-2.5,0.5c-1,0-1.8-0.2-2.6-0.5c-0.8-0.3-1.4-0.8-1.8-1.4
	c-0.5-0.6-0.7-1.3-0.8-2.1H5c0.1,0.6,0.3,1.1,0.8,1.6C6.2,20.7,6.9,21,7.6,21c0.7,0,1.2-0.2,1.6-0.6C9.6,20,9.8,19.5,9.8,19
	c0-0.5-0.1-0.9-0.4-1.3c-0.3-0.3-0.6-0.6-1-0.8c-0.4-0.2-1-0.4-1.7-0.6c-0.9-0.3-1.6-0.6-2.2-0.8c-0.6-0.3-1-0.7-1.4-1.2
	c-0.4-0.5-0.6-1.2-0.6-2.1c0-0.8,0.2-1.4,0.6-2c0.4-0.6,0.9-1,1.6-1.3c0.7-0.3,1.5-0.5,2.4-0.5c1.4,0,2.6,0.3,3.4,1
	c0.9,0.7,1.3,1.6,1.5,2.7H9.5c-0.1-0.5-0.3-1-0.8-1.4c-0.4-0.4-1-0.6-1.7-0.6c-0.6,0-1.2,0.2-1.5,0.5C5.1,10.9,5,11.4,5,12
	c0,0.5,0.1,0.9,0.4,1.2c0.3,0.3,0.6,0.6,1,0.7c0.4,0.2,1,0.4,1.7,0.6c0.9,0.3,1.6,0.6,2.2,0.9c0.6,0.3,1.1,0.7,1.4,1.3
	c0.4,0.5,0.6,1.3,0.6,2.2C12.3,19.6,12.1,20.2,11.8,20.8"/>
<path d="M21.6,12.2c0.7,0.5,1.2,1.2,1.5,2v-2.6h2.3v11.1h-2.3v-2.6c-0.3,0.8-0.8,1.5-1.5,2c-0.7,0.5-1.6,0.7-2.6,0.7
	c-1,0-1.8-0.2-2.6-0.7c-0.8-0.5-1.4-1.1-1.8-2c-0.4-0.9-0.6-1.9-0.6-3c0-1.2,0.2-2.2,0.6-3c0.4-0.9,1-1.5,1.8-2
	c0.8-0.5,1.6-0.7,2.6-0.7C20,11.4,20.9,11.7,21.6,12.2 M17.3,14.4c-0.6,0.7-0.9,1.5-0.9,2.7c0,1.1,0.3,2,0.9,2.7
	c0.6,0.7,1.4,1,2.4,1c0.6,0,1.2-0.2,1.7-0.5c0.5-0.3,0.9-0.7,1.2-1.3c0.3-0.5,0.4-1.2,0.4-1.9c0-0.7-0.1-1.4-0.4-1.9
	c-0.3-0.6-0.7-1-1.2-1.3c-0.5-0.3-1.1-0.5-1.7-0.5C18.7,13.5,17.9,13.8,17.3,14.4"/>
<path d="M37.4,12.6c0.8,0.8,1.2,2,1.2,3.6v6.5h-2.3v-6.2c0-1-0.3-1.8-0.8-2.3c-0.5-0.5-1.2-0.8-2.1-0.8c-0.9,0-1.6,0.3-2.2,0.9
	c-0.5,0.6-0.8,1.4-0.8,2.6v5.9h-2.3V11.6h2.3V14c0.3-0.8,0.8-1.5,1.5-1.9c0.7-0.5,1.5-0.7,2.4-0.7C35.6,11.4,36.7,11.8,37.4,12.6"/>
<path d="M48.3,12.2c0.7,0.5,1.2,1.2,1.5,2V7.8h2.3v14.9h-2.3v-2.6c-0.3,0.8-0.8,1.5-1.5,2s-1.6,0.7-2.6,0.7c-1,0-1.8-0.2-2.6-0.7
	c-0.8-0.5-1.4-1.1-1.8-2c-0.4-0.9-0.6-1.9-0.6-3c0-1.2,0.2-2.2,0.6-3c0.4-0.9,1-1.5,1.8-2c0.8-0.5,1.6-0.7,2.6-0.7
	C46.7,11.4,47.6,11.7,48.3,12.2 M44,14.4c-0.6,0.7-0.9,1.5-0.9,2.7c0,1.1,0.3,2,0.9,2.7c0.6,0.7,1.4,1,2.4,1c0.6,0,1.2-0.2,1.7-0.5
	c0.5-0.3,0.9-0.7,1.2-1.3c0.3-0.5,0.4-1.2,0.4-1.9c0-0.7-0.1-1.4-0.4-1.9c-0.3-0.6-0.7-1-1.2-1.3c-0.5-0.3-1.1-0.5-1.7-0.5
	C45.4,13.5,44.6,13.8,44,14.4"/>
<polygon points="70.4,11.6 67.3,22.7 64.8,22.7 62,14.1 59.3,22.7 56.7,22.7 53.7,11.6 56,11.6 58.1,20.5 60.9,11.6 63.3,11.6 
	66.1,20.5 68.2,11.6 "/>
<path d="M72,7.4C72.3,7.1,72.6,7,73.1,7c0.4,0,0.8,0.1,1.1,0.4c0.3,0.3,0.4,0.6,0.4,1c0,0.4-0.1,0.7-0.4,0.9
	c-0.3,0.2-0.6,0.4-1.1,0.4c-0.4,0-0.8-0.1-1.1-0.4c-0.3-0.2-0.4-0.6-0.4-0.9C71.6,8,71.8,7.7,72,7.4 M74.2,22.7h-2.3V11.6h2.3V22.7z
	"/>
<path d="M85.5,12.6c0.9,0.8,1.5,1.8,1.7,3.1h-2.4c-0.1-0.7-0.5-1.2-1-1.6c-0.5-0.4-1.2-0.6-1.9-0.6c-0.9,0-1.6,0.3-2.2,0.9
	c-0.6,0.6-0.9,1.5-0.9,2.7c0,1.2,0.3,2.1,0.9,2.8c0.6,0.6,1.3,0.9,2.2,0.9c0.8,0,1.4-0.2,1.9-0.6c0.5-0.4,0.8-1,1-1.6h2.4
	c-0.2,1.3-0.8,2.3-1.7,3.1c-0.9,0.8-2.1,1.1-3.6,1.1c-1.1,0-2-0.2-2.8-0.7c-0.8-0.5-1.5-1.1-1.9-2c-0.5-0.9-0.7-1.9-0.7-3
	c0-1.2,0.2-2.2,0.7-3c0.5-0.9,1.1-1.5,1.9-2c0.8-0.5,1.8-0.7,2.8-0.7C83.4,11.4,84.6,11.8,85.5,12.6"/>
<path d="M98.7,12.6c0.8,0.8,1.2,2,1.2,3.6v6.5h-2.3v-6.2c0-1-0.3-1.8-0.8-2.3c-0.5-0.5-1.2-0.8-2.1-0.8c-0.9,0-1.6,0.3-2.2,0.9
	c-0.5,0.6-0.8,1.4-0.8,2.6v5.9h-2.3V7.8h2.3V14c0.3-0.8,0.8-1.5,1.5-1.9c0.7-0.5,1.5-0.7,2.4-0.7C96.9,11.4,98,11.8,98.7,12.6"/>
<path fill="#FF8C00" d="M109.5,19.7c-0.2,0-0.4-0.1-0.5-0.2l-7.3-9.1c-0.2-0.3-0.2-0.7,0.1-0.9c0.3-0.2,0.7-0.2,0.9,0.1l6.9,8.6
	l11.9-8.3c0.3-0.2,0.7-0.1,0.9,0.2c0.2,0.3,0.1,0.7-0.2,0.9l-12.4,8.6C109.7,19.6,109.6,19.7,109.5,19.7"/>
<path fill="#FFD200" d="M109.5,16.5c-0.2,0-0.4-0.1-0.5-0.2l-7.3-9.1c-0.2-0.3-0.2-0.7,0.1-0.9c0.3-0.2,0.7-0.2,0.9,0.1l6.9,8.6
	l11.9-8.3c0.3-0.2,0.7-0.1,0.9,0.2c0.2,0.3,0.1,0.7-0.2,0.9l-12.4,8.6C109.7,16.4,109.6,16.5,109.5,16.5"/>
<path fill="#FFE696" d="M122.5,3.7c-0.1-0.3-0.3-0.5-0.6-0.5h-19.3c-0.3,0-0.5,0.1-0.6,0.4c-0.1,0.2-0.1,0.5,0.1,0.7l6.9,8.6
	c0.1,0.2,0.3,0.2,0.5,0.2c0.1,0,0.3,0,0.4-0.1l12.4-8.6C122.5,4.2,122.6,3.9,122.5,3.7z"/>
</svg>
