<svg xmlns="http://www.w3.org/2000/svg" width="17" height="15" viewBox="0 0 17 15">
  <g id="그룹_5734" data-name="그룹 5734" transform="translate(-1083 -62.963)">
    <path id="패스_4810" data-name="패스 4810" d="M-177.206,1245.814a2.7,2.7,0,0,1-2.647,2.745,2.7,2.7,0,0,1-2.647-2.745v-1.569a2.7,2.7,0,0,1,2.647-2.745,2.7,2.7,0,0,1,2.647,2.745Z" transform="translate(1273.983 -1178.537)" fill="#d3d8e0"/>
    <circle id="타원_88" data-name="타원 88" cx="2.206" cy="2.206" r="2.206" transform="translate(1085.552 64.327)" fill="#d3d8e0"/>
    <path id="패스_4811" data-name="패스 4811" d="M-189.872,1256.016h-3.762a.75.75,0,0,1-.76-.865,4.591,4.591,0,0,1,4.522-3.65,4.636,4.636,0,0,1,2.7.858c.759.54,1.018.765,1.018.765l-.624,2.824Z" transform="translate(1277.408 -1180.122)" fill="#d3d8e0"/>
    <path id="패스_4812" data-name="패스 4812" d="M-181.342,1252.5h0a6.105,6.105,0,0,0-6.08,5.165.763.763,0,0,0,.767.856h10.627a.763.763,0,0,0,.767-.856A6.105,6.105,0,0,0-181.342,1252.5Z" transform="translate(1275.254 -1180.558)" fill="#d3d8e0"/>
  </g>
</svg>
