<svg xmlns="http://www.w3.org/2000/svg" width="16" height="16" viewBox="0 0 16 16">
  <g id="그룹_5718" data-name="그룹 5718" transform="translate(-768.5 -1176.5)">
    <path id="패스_4848" data-name="패스 4848" d="M771.335,1181.627l-1.229-2.047,1.475-1.475,2.047,1.229v0a5.535,5.535,0,0,1,1.252-.522l.577-2.316h2.087l.577,2.316a5.535,5.535,0,0,1,1.252.522v0l2.046-1.229,1.475,1.475-1.229,2.047h0a5.534,5.534,0,0,1,.522,1.252l2.316.577v2.087l-2.316.577a5.535,5.535,0,0,1-.522,1.252h0l1.229,2.047-1.475,1.475-2.046-1.229v0a5.535,5.535,0,0,1-1.252.522l-.577,2.316h-2.087l-.577-2.316a5.535,5.535,0,0,1-1.252-.522v0l-2.047,1.229-1.475-1.475,1.229-2.047h0a5.524,5.524,0,0,1-.522-1.252l-2.317-.577v-2.087l2.317-.577a5.523,5.523,0,0,1,.522-1.252Z" fill="#36353A"/>
    <circle id="타원_97" data-name="타원 97" cx="2.5" cy="2.5" r="2.5" transform="translate(774 1182)" fill="#fff"/>
  </g>
</svg>
