<svg xmlns="http://www.w3.org/2000/svg" width="16" height="17" viewBox="0 0 16 17">
  <g id="그룹_5665" data-name="그룹 5665" transform="translate(0 0)">
    <path id="패스_4815" data-name="패스 4815" d="M-138.5,1217.076h7.2a.784.784,0,0,0,.8-.767v-1.634a.8.8,0,0,0-.63-.748c-1.846-.506-2.207-2.614-2.57-6.824-.2-2.294-1.6-4.6-4.8-4.6s-4.6,2.309-4.8,4.6c-.363,4.21-.725,6.318-2.57,6.824a.8.8,0,0,0-.63.748v1.634a.784.784,0,0,0,.8.767Z" transform="translate(146.5 -1202.5)" fill="#d3d8e0"/>
    <path id="패스_4816" data-name="패스 4816" d="M-136,1226.5h0a2.5,2.5,0,0,1-2.5-2.5v-2.5h5v2.5A2.5,2.5,0,0,1-136,1226.5Z" transform="translate(144.344 -1209.5)" fill="#d3d8e0"/>
  </g>
</svg>
