<?xml version="1.0" standalone="no"?>
<!DOCTYPE svg PUBLIC "-//W3C//DTD SVG 20010904//EN"
 "http://www.w3.org/TR/2001/REC-SVG-20010904/DTD/svg10.dtd">
<svg version="1.0" xmlns="http://www.w3.org/2000/svg"
 width="500.000000pt" height="500.000000pt" viewBox="0 0 500.000000 500.000000"
 preserveAspectRatio="xMidYMid meet">
<metadata>
Created by potrace 1.14, written by Peter Selinger 2001-2017
</metadata>
<g transform="translate(0.000000,500.000000) scale(0.100000,-0.100000)"
fill="#000000" stroke="none">
<path d="M506 4695 c6 -16 5 -18 -7 -7 -16 15 -33 16 -23 0 5 -7 3 -8 -6 -3
-16 10 -193 10 -210 0 -8 -5 -11 -4 -7 2 8 12 -54 10 -74 -3 -7 -4 -9 -3 -6 3
8 12 -54 10 -74 -3 -7 -4 -9 -3 -6 3 8 12 -54 10 -74 -3 -8 -4 -9 -3 -5 4 4 7
2 12 -4 12 -7 0 -9 -93 -8 -307 l3 -308 22 3 c12 2 27 -5 35 -16 7 -10 22 -24
33 -31 15 -9 16 -11 3 -7 -25 8 -22 0 13 -33 20 -19 28 -35 23 -43 -5 -9 -1
-8 11 2 11 9 16 10 11 3 -4 -8 -2 -13 6 -13 9 0 9 -3 -2 -10 -11 -7 -11 -10
-2 -10 7 0 10 -5 6 -12 -4 -6 -3 -8 3 -5 11 7 45 -28 36 -37 -4 -3 -1 -6 6 -6
7 0 9 -5 5 -12 -5 -8 0 -7 11 2 11 9 16 10 11 3 -4 -8 -2 -13 4 -13 7 0 10 -7
7 -15 -4 -8 4 -22 18 -33 17 -14 21 -22 13 -30 -8 -8 -4 -9 12 -5 20 5 22 3
17 -16 -4 -17 -3 -20 8 -11 9 8 14 6 19 -6 3 -9 4 -20 1 -24 -3 -5 0 -12 6
-16 8 -5 9 -3 4 7 -8 12 -6 12 8 0 9 -7 17 -20 17 -28 0 -8 4 -12 9 -9 4 3 16
-3 25 -13 13 -14 14 -21 5 -27 -8 -5 -10 -3 -4 7 5 8 6 12 2 9 -10 -9 -7 -25
6 -25 6 -1 11 -6 10 -13 -3 -11 10 -17 31 -13 5 1 6 -6 2 -15 -4 -11 0 -18 15
-21 16 -5 18 -8 7 -15 -9 -7 -7 -8 9 -5 19 4 21 2 13 -13 -8 -15 -6 -20 11
-25 11 -4 18 -9 15 -12 -3 -3 2 -12 10 -20 8 -8 11 -19 8 -25 -4 -7 -2 -8 5
-4 6 4 8 13 4 19 -4 7 1 6 10 -2 13 -11 15 -17 6 -28 -10 -11 -9 -12 5 -7 12
5 16 0 16 -16 0 -15 5 -20 14 -17 11 4 13 1 9 -10 -5 -12 -3 -14 7 -8 10 6 12
4 7 -7 -3 -10 3 -24 16 -35 21 -18 21 -18 7 2 -14 19 -14 19 3 6 9 -7 17 -19
17 -27 0 -7 9 -22 21 -33 12 -11 18 -24 15 -30 -4 -6 2 -8 14 -6 11 2 23 -1
26 -7 4 -7 2 -8 -4 -4 -7 4 -12 2 -12 -3 0 -6 6 -11 14 -11 10 0 13 -7 11 -21
-3 -12 0 -19 7 -17 16 6 53 -33 52 -54 -1 -9 4 -14 11 -11 7 2 16 -1 21 -8 4
-8 3 -10 -4 -5 -21 13 -12 -5 16 -31 15 -15 20 -23 12 -19 -9 5 -8 2 2 -7 10
-8 14 -18 10 -23 -4 -4 1 -2 11 5 15 12 17 11 17 -8 0 -11 5 -21 11 -21 5 0 8
-4 5 -9 -3 -5 1 -11 9 -15 8 -3 15 -13 15 -21 0 -9 4 -13 10 -10 5 3 15 -6 22
-20 8 -19 14 -22 21 -13 6 9 7 6 4 -9 -3 -13 1 -24 9 -27 8 -3 14 -10 14 -16
0 -15 26 -40 40 -40 8 0 10 -8 7 -21 -5 -17 -3 -18 10 -7 14 11 15 10 8 -11
-5 -16 -4 -21 4 -17 6 4 11 0 11 -9 0 -9 5 -13 10 -10 5 3 10 -1 10 -9 0 -9 8
-16 19 -16 14 0 18 -5 14 -20 -4 -15 0 -20 13 -20 16 0 17 -2 4 -10 -13 -8
-12 -10 3 -10 10 0 16 -3 14 -7 -7 -11 59 -74 67 -65 4 3 4 -1 0 -11 -4 -11 0
-19 10 -23 9 -3 16 -12 16 -20 0 -8 5 -14 11 -14 5 0 7 -4 4 -10 -3 -5 4 -10
15 -10 16 0 20 -4 16 -16 -3 -8 -2 -12 4 -9 6 3 10 -1 10 -10 0 -20 25 -46 35
-37 5 4 5 -1 2 -11 -4 -11 -3 -16 4 -12 6 4 13 -2 16 -14 3 -12 9 -21 14 -21
5 0 8 -6 7 -12 -2 -7 3 -12 11 -10 9 2 11 -3 7 -13 -3 -9 -2 -13 4 -10 6 3 10
1 10 -5 0 -6 4 -9 10 -5 5 3 16 -8 25 -25 10 -18 11 -30 5 -30 -6 0 -8 -5 -5
-10 4 -6 11 -8 16 -5 5 4 12 -1 15 -9 3 -9 11 -13 17 -9 6 4 8 0 4 -10 -3 -10
-2 -17 4 -17 6 0 7 -6 3 -12 -5 -8 0 -7 11 2 11 9 16 10 11 3 -4 -7 -2 -13 3
-13 6 0 11 -7 11 -15 0 -8 3 -14 8 -14 19 3 23 -2 12 -16 -11 -13 -10 -14 2
-10 10 4 17 -2 22 -17 4 -17 8 -20 14 -10 7 10 11 10 21 -2 16 -19 85 -60 75
-45 -5 8 1 10 19 7 21 -4 25 -2 22 16 -4 20 -3 20 9 3 13 -17 14 -16 19 3 3
13 11 18 20 14 8 -3 17 2 21 11 3 9 10 13 16 10 5 -3 10 0 10 7 0 11 2 10 9 0
6 -10 10 -8 14 8 4 17 11 21 27 17 18 -5 19 -3 8 11 -10 12 -10 14 0 8 7 -4
12 -2 12 4 0 7 7 10 14 7 11 -4 13 -1 9 10 -4 10 -2 14 4 10 6 -4 23 5 37 18
29 27 42 32 30 13 -4 -7 -3 -8 4 -4 7 4 12 15 13 24 0 11 3 12 6 5 2 -7 9 -13
14 -13 6 0 7 4 4 10 -3 5 1 20 9 32 9 12 16 18 16 12 0 -6 7 -11 15 -11 14 0
19 10 16 30 0 4 6 7 15 7 9 0 12 -5 8 -12 -4 -7 -3 -8 4 -4 6 4 9 13 6 21 -4
9 2 13 19 11 16 -2 24 1 21 9 -6 15 22 39 36 30 5 -3 13 1 16 9 3 9 13 16 21
16 8 0 11 5 8 10 -3 6 3 10 14 10 12 0 21 5 21 11 0 5 4 8 9 4 5 -3 13 4 16
15 5 16 10 19 20 10 11 -9 12 -6 8 12 -4 18 -3 20 6 8 8 -11 11 -12 11 -2 0 7
4 11 9 8 5 -3 16 6 26 20 9 15 22 23 31 20 7 -3 13 -2 13 2 -3 19 2 23 16 12
13 -11 14 -10 9 4 -4 11 -1 16 11 16 9 0 13 4 10 10 -3 6 1 7 9 4 11 -4 16 0
16 11 0 10 5 15 13 12 18 -7 38 18 25 31 -8 8 -5 9 10 6 13 -4 28 2 43 17 13
13 32 22 42 21 10 -2 16 2 15 10 -2 7 5 12 14 12 11 -1 14 4 11 14 -4 9 -2 13
4 9 6 -4 21 2 33 13 13 11 19 20 14 20 -8 1 24 23 36 26 18 3 60 24 60 29 0 4
-5 3 -12 -1 -7 -5 -8 -3 -3 5 4 7 16 11 26 8 11 -3 17 -1 13 4 -3 5 0 9 6 9 6
0 8 5 4 13 -6 9 -4 9 8 -1 13 -10 18 -10 24 -1 5 8 3 9 -7 4 -12 -7 -12 -6 -1
7 8 9 20 14 28 11 8 -3 14 1 14 10 0 9 5 19 12 23 7 5 9 2 4 -7 -4 -8 -1 -6 7
4 9 10 18 18 21 18 20 -3 27 0 22 8 -3 5 1 12 10 15 22 9 26 8 18 -6 -4 -7 -3
-8 5 -4 9 6 9 11 0 22 -9 11 -8 14 7 15 11 1 23 1 27 0 5 -1 5 4 1 10 -5 9 -2
10 9 6 10 -4 16 -2 14 6 -1 6 8 13 21 15 13 2 26 10 29 18 3 8 11 14 19 14 8
0 13 3 13 8 -3 19 2 23 15 13 11 -9 16 -9 22 0 4 8 3 9 -4 5 -7 -4 -12 -3 -12
2 0 13 29 24 42 15 7 -3 8 -1 4 6 -11 17 12 40 34 36 11 -2 19 1 17 8 -1 7 8
12 20 11 18 0 20 2 12 13 -9 10 -7 13 7 14 11 1 23 1 27 0 5 -1 6 3 2 9 -3 5
1 10 9 10 8 0 19 7 24 16 5 9 13 17 18 17 5 1 8 6 6 10 -1 5 3 5 9 1 7 -4 17
0 23 8 6 9 20 17 31 19 11 2 25 15 31 27 8 17 13 20 17 10 3 -7 6 -2 6 12 1
14 5 21 9 15 9 -12 36 -19 28 -7 -2 4 0 14 5 22 8 13 10 13 20 0 9 -13 10 -12
5 2 -3 10 -1 20 4 23 6 4 10 1 10 -5 0 -6 5 -8 10 -5 6 4 8 11 5 16 -6 8 8 13
28 10 4 0 6 2 6 6 -3 20 2 26 11 13 8 -13 10 -13 10 2 0 11 5 15 15 12 12 -5
14 -2 8 12 -6 17 -5 17 10 5 15 -12 17 -12 12 1 -3 8 2 21 12 29 17 13 17 13
3 -6 -15 -19 -15 -19 11 0 15 11 24 24 21 29 -3 5 2 7 11 3 10 -4 22 1 30 13
8 11 17 17 21 13 4 -4 9 2 12 14 4 15 11 20 22 16 10 -4 14 -3 10 1 -12 14 15
35 30 23 7 -6 12 -6 11 -1 -4 21 2 35 11 29 6 -4 8 -12 4 -18 -3 -7 3 -2 14
11 11 12 25 22 32 22 6 0 8 5 4 12 -5 8 0 9 15 5 18 -4 20 -3 10 9 -9 11 -8
14 5 14 9 0 16 5 16 11 0 5 4 8 9 5 5 -3 16 5 25 18 11 17 21 23 36 19 14 -4
20 -1 18 7 -2 7 3 15 11 18 8 3 11 0 7 -7 -5 -7 -1 -8 10 -4 11 4 13 8 6 11
-16 5 -15 23 1 19 7 -1 11 6 9 18 -3 20 -3 20 11 1 14 -19 15 -19 26 2 7 13
17 20 23 16 7 -5 9 -1 5 9 -8 20 4 22 22 5 10 -11 11 -10 6 3 -4 10 -1 20 6
25 8 4 10 3 5 -4 -5 -8 -2 -10 8 -6 9 3 14 11 13 17 -1 7 5 12 13 12 8 0 23
10 34 23 10 13 24 21 30 19 14 -6 37 18 28 29 -4 5 1 2 10 -5 15 -11 17 -10
13 8 -2 12 0 19 5 16 5 -3 13 1 17 10 5 8 20 16 35 17 18 2 24 7 20 17 -4 10
0 13 16 9 12 -4 20 -1 19 5 -1 5 9 14 23 18 14 4 19 7 11 8 -11 1 -11 4 -1 16
7 8 16 12 21 9 5 -3 20 6 34 20 14 14 25 20 25 13 0 -7 5 -4 11 5 5 10 16 15
25 11 8 -3 14 -2 13 3 -5 26 1 36 15 25 11 -9 14 -8 12 6 0 11 5 17 17 17 9
-1 17 4 17 12 0 8 7 14 16 14 11 0 14 5 10 16 -5 14 -4 15 9 4 12 -10 15 -10
15 0 0 8 3 11 6 7 3 -3 17 6 30 21 20 22 23 24 19 7 -4 -16 -3 -15 6 3 7 13
18 21 26 18 7 -3 13 0 13 6 0 6 3 9 6 5 4 -3 13 1 21 9 8 8 19 12 24 9 5 -4 9
83 9 215 0 197 -2 221 -16 216 -8 -3 -13 -2 -10 3 7 10 -57 6 -75 -5 -7 -4 -9
-3 -6 3 8 12 -54 10 -74 -3 -8 -4 -9 -3 -5 4 4 7 1 12 -8 12 -9 0 -16 -5 -16
-11 0 -5 -5 -7 -11 -3 -18 11 -148 10 -141 -1 3 -5 -2 -4 -11 4 -14 11 -17 11
-17 0 0 -8 -6 -5 -15 7 -15 19 -15 19 -9 -1 6 -16 5 -18 -7 -7 -16 15 -33 16
-23 0 4 -7 3 -8 -5 -4 -19 12 -160 13 -153 1 3 -5 -2 -4 -11 4 -14 11 -17 11
-17 0 0 -8 -6 -5 -15 7 -15 19 -15 19 -9 -1 6 -16 5 -18 -7 -7 -16 15 -33 16
-23 0 5 -7 3 -8 -6 -3 -16 10 -193 10 -210 0 -8 -5 -11 -4 -7 2 8 12 -54 10
-74 -3 -7 -4 -9 -3 -6 3 8 12 -54 10 -74 -3 -7 -4 -9 -3 -6 3 8 12 -54 10 -74
-3 -8 -4 -9 -3 -5 4 10 16 -7 15 -23 0 -11 -10 -13 -10 -7 0 5 7 1 12 -9 12
-9 0 -14 -4 -10 -9 3 -6 -6 -8 -22 -5 -58 11 -112 11 -106 0 4 -6 -1 -5 -10 3
-14 11 -17 11 -17 0 0 -8 -6 -5 -15 7 -15 19 -15 19 -9 -1 6 -16 5 -18 -7 -7
-16 15 -33 16 -23 0 4 -7 3 -8 -5 -4 -19 12 -160 13 -153 1 3 -5 -2 -4 -11 4
-14 11 -17 11 -17 0 0 -8 -6 -5 -15 7 -15 19 -15 19 -9 -1 6 -16 5 -18 -7 -7
-16 15 -33 16 -23 0 5 -7 3 -8 -6 -3 -16 10 -193 10 -210 0 -8 -5 -11 -4 -7 2
8 12 -54 10 -74 -3 -7 -4 -9 -3 -6 3 8 12 -54 10 -74 -3 -7 -4 -9 -3 -6 3 8
12 -54 10 -74 -3 -8 -4 -9 -3 -5 4 4 7 1 12 -8 12 -9 0 -16 -5 -16 -11 0 -5
-5 -7 -11 -3 -18 11 -148 10 -141 -1 3 -5 -2 -4 -11 4 -14 11 -17 11 -17 0 0
-8 -6 -5 -15 7 -15 19 -15 19 -9 -1 6 -16 5 -18 -7 -7 -16 15 -33 16 -23 0 4
-7 3 -8 -5 -4 -19 12 -160 13 -153 1 3 -5 -2 -4 -11 4 -14 11 -17 11 -17 0 0
-8 -6 -5 -15 7 -15 19 -15 19 -9 -1 6 -16 5 -18 -7 -7 -16 15 -33 16 -23 0 5
-7 3 -8 -6 -3 -16 10 -193 10 -210 0 -8 -5 -11 -4 -7 2 8 12 -54 10 -74 -3 -7
-4 -9 -3 -6 3 8 12 -54 10 -74 -3 -7 -4 -9 -3 -6 3 8 12 -54 10 -74 -3 -8 -4
-9 -3 -5 4 10 16 -7 15 -23 0 -11 -10 -13 -10 -7 0 5 7 1 12 -9 12 -9 0 -14
-4 -10 -9 3 -6 -6 -8 -22 -5 -58 11 -112 11 -106 0 4 -6 -1 -5 -10 3 -14 11
-17 11 -17 0 0 -8 -6 -5 -15 7 -15 19 -15 19 -9 -1 6 -16 5 -18 -7 -7 -16 15
-33 16 -23 0 4 -7 3 -8 -5 -4 -19 12 -160 13 -153 1 3 -5 -2 -4 -11 4 -14 11
-17 11 -17 0 0 -8 -6 -5 -15 7 -15 19 -15 19 -9 -1 6 -16 5 -18 -7 -7 -16 15
-33 16 -23 0 5 -7 3 -8 -6 -3 -16 10 -193 10 -210 0 -8 -5 -11 -4 -7 2 8 12
-54 10 -74 -3 -7 -4 -9 -3 -6 3 8 12 -54 10 -74 -3 -7 -4 -9 -3 -6 3 8 12 -54
10 -74 -3 -8 -4 -9 -3 -5 4 4 7 1 12 -8 12 -9 0 -16 -5 -16 -11 0 -5 -5 -7
-11 -3 -18 11 -148 10 -141 -1 3 -5 -2 -4 -11 4 -14 11 -17 11 -17 0 0 -8 -6
-5 -15 7 -15 19 -15 19 -9 -1 6 -16 5 -18 -7 -7 -16 15 -33 16 -23 0 4 -7 3
-8 -5 -4 -19 12 -160 13 -153 1 3 -5 -2 -4 -11 4 -14 11 -17 11 -17 0 0 -8 -6
-5 -15 7 -15 19 -15 19 -9 -1z m728 -2081 c3 -8 2 -12 -4 -9 -6 3 -10 10 -10
16 0 14 7 11 14 -7z"/>
<path d="M4984 3785 c-4 -8 -10 -13 -14 -10 -5 3 -15 -1 -23 -9 -8 -8 -17 -12
-21 -9 -3 4 -6 1 -6 -6 0 -7 -4 -9 -10 -6 -5 3 -10 1 -10 -4 0 -6 -6 -11 -14
-11 -8 0 -17 -7 -20 -16 -3 -8 -10 -12 -16 -9 -5 3 -10 -1 -10 -10 0 -9 -4
-13 -10 -10 -11 7 -53 -19 -45 -27 3 -3 -8 -11 -25 -18 -16 -7 -30 -17 -30
-23 0 -6 -3 -8 -6 -4 -3 3 -11 2 -18 -3 -60 -49 -74 -59 -80 -53 -5 6 -10 -11
-7 -29 0 -4 -6 -5 -14 -2 -8 4 -17 -1 -21 -10 -3 -9 -9 -14 -13 -11 -4 2 -22
-9 -40 -26 -18 -16 -36 -27 -41 -24 -4 3 -11 -2 -14 -11 -3 -8 -10 -12 -16 -9
-5 3 -10 -1 -10 -10 0 -11 -5 -15 -14 -12 -8 3 -17 -1 -20 -9 -3 -9 -10 -12
-16 -9 -9 6 -14 -8 -11 -28 1 -5 -3 -6 -9 -2 -6 3 -17 -1 -26 -9 -9 -9 -20
-13 -26 -10 -7 4 -8 2 -4 -4 4 -7 1 -12 -8 -12 -9 0 -16 -4 -16 -9 0 -5 -16
-16 -35 -25 -21 -10 -33 -22 -29 -28 5 -7 2 -9 -9 -5 -9 3 -21 -1 -29 -11 -11
-13 -11 -14 1 -7 9 5 12 4 7 -3 -4 -6 -13 -9 -21 -5 -8 3 -15 0 -15 -6 0 -6
-6 -11 -13 -11 -7 0 -19 -9 -27 -19 -7 -11 -17 -18 -22 -15 -4 3 -8 0 -8 -6 0
-6 -4 -9 -8 -6 -5 3 -16 -3 -25 -12 -22 -24 -45 -42 -53 -42 -4 0 -13 -8 -21
-17 -10 -12 -12 -13 -8 -3 4 10 2 9 -8 -2 -8 -10 -17 -15 -20 -11 -4 3 -7 1
-7 -6 0 -8 -6 -11 -16 -7 -15 6 -15 4 -3 -11 9 -11 10 -14 2 -9 -8 4 -13 2
-13 -4 0 -6 -4 -9 -9 -6 -5 3 -15 -1 -22 -10 -7 -9 -24 -20 -37 -25 -13 -5
-20 -13 -17 -19 3 -5 0 -7 -8 -4 -9 3 -22 -4 -31 -18 -9 -12 -16 -18 -16 -13
0 6 -3 6 -8 0 -4 -5 -16 -15 -27 -22 -11 -6 -19 -16 -17 -23 1 -6 -2 -9 -7 -5
-13 8 -63 -24 -55 -36 3 -5 -2 -6 -10 -3 -9 4 -18 -1 -22 -10 -3 -9 -10 -14
-14 -11 -5 3 -13 -3 -19 -12 -5 -10 -12 -17 -15 -15 -13 5 -55 -31 -49 -42 4
-6 -2 -4 -12 4 -17 14 -18 13 -12 -2 6 -16 2 -19 -18 -18 -3 1 -13 -6 -21 -15
-9 -8 -20 -12 -26 -9 -7 4 -8 2 -4 -4 4 -6 -8 -18 -29 -28 -19 -9 -35 -20 -35
-25 0 -5 -6 -9 -14 -9 -8 0 -17 -7 -20 -16 -3 -8 -10 -12 -16 -9 -5 3 -10 -1
-10 -10 0 -9 -5 -13 -11 -10 -5 4 -21 -5 -35 -20 -13 -14 -24 -22 -24 -18 0 4
-10 -3 -21 -17 -11 -14 -18 -18 -14 -10 5 12 4 12 -7 -1 -7 -9 -20 -14 -28
-11 -8 3 -12 1 -8 -3 9 -10 -35 -45 -57 -45 -9 0 -14 -4 -10 -9 3 -5 -4 -12
-15 -16 -11 -3 -20 -11 -20 -17 0 -6 -3 -9 -6 -5 -4 3 -13 -1 -21 -9 -8 -8
-19 -12 -24 -8 -5 3 -8 2 -7 -3 2 -4 -1 -10 -7 -12 -5 -3 -21 -15 -35 -28 -14
-13 -31 -21 -38 -18 -7 3 -10 1 -7 -4 3 -6 -8 -18 -25 -27 -16 -10 -30 -22
-30 -26 0 -4 -8 -5 -17 -1 -10 3 -15 2 -10 -2 4 -5 -11 -19 -33 -32 -22 -13
-40 -28 -40 -34 0 -5 -3 -8 -7 -7 -20 5 -54 -15 -49 -28 3 -8 1 -12 -4 -9 -5
3 -18 -3 -29 -14 -11 -11 -22 -17 -25 -13 -3 3 -6 0 -6 -6 0 -7 -7 -12 -16
-12 -8 0 -12 -5 -9 -11 4 -6 0 -9 -11 -7 -11 2 -18 -2 -16 -9 2 -12 -11 -17
-31 -14 -4 1 -10 -6 -13 -14 -3 -8 -10 -12 -15 -9 -5 3 -9 -2 -9 -10 0 -9 -3
-15 -7 -14 -16 4 -53 -14 -48 -23 4 -5 -1 -9 -9 -9 -9 0 -16 -5 -16 -11 0 -5
-13 -15 -30 -20 -16 -6 -30 -15 -30 -20 0 -5 -11 -14 -25 -19 -14 -5 -25 -14
-25 -20 0 -6 -4 -9 -8 -6 -5 3 -23 -8 -40 -23 -19 -18 -33 -25 -36 -17 -2 6
-5 3 -5 -6 -1 -16 -12 -23 -34 -19 -5 1 -6 -3 -2 -9 5 -9 2 -11 -20 -10 -11 1
-33 -25 -28 -32 2 -5 -2 -8 -10 -8 -8 0 -24 -9 -37 -20 -13 -11 -29 -20 -37
-20 -8 0 -11 -4 -8 -10 3 -5 -1 -10 -9 -10 -9 0 -16 -5 -16 -11 0 -5 -4 -8 -9
-5 -5 3 -11 -1 -15 -9 -3 -8 -15 -15 -26 -15 -11 0 -19 -6 -17 -12 1 -7 -4
-12 -11 -10 -7 1 -15 -5 -18 -13 -4 -8 -11 -15 -16 -15 -5 0 -17 -8 -26 -18
-10 -10 -12 -11 -7 -3 7 10 1 8 -17 -4 -15 -11 -28 -26 -28 -32 0 -7 -3 -12
-7 -12 -20 3 -34 -2 -29 -10 3 -5 -1 -12 -10 -15 -10 -4 -13 -2 -8 7 5 9 4 9
-6 0 -11 -10 -21 -5 -52 26 -21 22 -44 42 -50 44 -10 4 -9 6 1 6 7 1 -4 17
-25 37 -22 20 -32 33 -24 29 8 -4 6 1 -5 12 -11 11 -29 32 -40 47 -11 16 -32
41 -48 56 -15 16 -27 32 -27 36 0 3 -12 18 -28 32 -15 13 -20 21 -12 16 14 -7
-3 14 -57 71 -12 12 -19 26 -16 29 3 3 -2 8 -11 12 -9 3 -16 13 -16 20 0 8
-10 19 -22 24 -13 5 -17 9 -10 9 7 1 3 10 -10 23 -13 13 -26 22 -30 21 -5 -2
-8 4 -8 13 0 9 -8 24 -18 33 -10 9 -21 24 -25 34 -3 9 -14 17 -24 17 -15 0
-16 2 -3 10 13 8 12 10 -2 10 -10 0 -18 4 -18 8 0 5 -8 18 -17 30 -47 55 -53
63 -53 73 0 5 -4 7 -10 4 -5 -3 -10 3 -10 14 0 11 -9 22 -21 26 -11 4 -18 9
-16 12 5 5 -12 29 -45 65 -10 10 -18 23 -18 29 0 5 -5 7 -12 3 -8 -5 -9 -2 -5
9 4 11 1 17 -8 17 -8 0 -15 6 -15 13 0 7 -9 19 -20 27 -11 8 -20 20 -20 27 0
7 -9 17 -20 23 -11 6 -20 16 -20 23 0 7 -9 19 -19 27 -11 7 -18 17 -15 22 3 4
-2 8 -10 8 -9 0 -15 4 -13 9 1 5 -9 18 -22 30 -13 12 -21 21 -18 21 4 0 -2 9
-13 20 -12 12 -18 26 -14 33 4 7 4 9 -1 5 -8 -8 -35 15 -35 29 0 5 -10 19 -23
31 -34 32 -46 49 -40 56 4 3 -1 6 -11 6 -9 0 -15 4 -12 8 3 5 -4 15 -15 22
-10 8 -19 20 -19 27 0 7 -9 17 -20 23 -11 6 -20 16 -20 23 0 7 -9 19 -19 27
-11 7 -18 17 -15 22 3 4 -2 8 -11 8 -9 0 -13 5 -10 10 3 6 -1 13 -9 16 -9 3
-16 11 -16 18 0 6 -9 18 -20 26 -11 8 -20 20 -20 28 0 7 -4 10 -10 7 -5 -3
-10 1 -10 9 0 8 -10 22 -22 31 -13 8 -22 18 -20 20 6 12 1 26 -8 20 -5 -3 -10
1 -10 10 0 8 -7 18 -15 21 -8 4 -12 10 -9 15 3 5 -3 9 -12 9 -10 0 -15 3 -11
6 3 3 -2 15 -11 26 -39 46 -64 74 -85 97 -12 13 -15 21 -7 17 8 -4 5 1 -8 10
-12 9 -22 23 -22 31 0 8 -4 12 -9 9 -5 -3 -11 4 -14 15 -3 12 -10 18 -16 14
-7 -4 -8 0 -4 11 4 11 2 15 -4 11 -5 -3 -16 6 -24 21 -8 15 -22 34 -31 43 -10
9 -18 19 -18 23 0 4 -11 17 -25 30 -13 13 -21 27 -17 31 4 5 1 5 -6 1 -7 -4
-15 -1 -18 8 -18 47 -24 -23 -24 -273 0 -250 2 -280 17 -292 15 -12 16 -12 8
1 -4 8 2 5 14 -7 12 -13 31 -32 44 -44 12 -12 16 -19 10 -15 -9 5 -11 2 -7 -8
3 -9 9 -14 13 -12 3 2 15 -6 26 -17 11 -11 14 -17 8 -13 -9 5 -11 2 -7 -8 3
-9 16 -16 28 -17 11 0 16 -3 9 -5 -14 -6 -6 -34 11 -34 6 0 17 -14 25 -31 10
-23 16 -28 22 -18 6 10 9 8 9 -8 0 -12 13 -35 30 -51 16 -17 30 -35 30 -40 0
-5 11 -17 25 -26 14 -9 24 -20 21 -24 -2 -4 2 -13 10 -20 8 -7 14 -9 14 -5 0
4 5 0 11 -10 5 -9 7 -23 3 -30 -4 -6 -4 -9 1 -5 9 9 35 -16 35 -33 0 -7 3 -9
7 -6 3 4 11 -3 18 -16 6 -12 17 -21 25 -19 8 2 10 -3 6 -13 -3 -9 0 -18 9 -21
8 -3 17 -14 20 -25 4 -10 14 -19 23 -19 15 0 15 -2 2 -10 -13 -8 -12 -10 4
-10 12 0 16 -5 12 -15 -3 -8 0 -14 7 -12 7 1 11 -5 9 -13 -2 -8 -1 -12 3 -8
10 10 35 -17 35 -37 0 -9 4 -13 10 -10 5 3 10 -1 10 -10 0 -10 5 -13 12 -9 8
5 9 2 5 -9 -3 -10 -2 -17 4 -17 6 0 17 -7 25 -15 11 -11 12 -15 3 -15 -18 0
-4 -11 18 -14 10 -2 17 -10 15 -20 -2 -10 4 -16 15 -16 15 0 16 -2 3 -10 -13
-8 -13 -10 2 -10 9 0 20 -9 23 -20 4 -11 11 -18 16 -15 5 4 9 -2 9 -13 0 -21
29 -52 49 -52 7 0 9 -5 6 -11 -4 -5 2 -18 12 -27 11 -9 22 -25 26 -35 4 -10
11 -16 16 -12 5 3 13 0 17 -6 4 -8 3 -9 -4 -5 -7 4 -12 3 -12 -1 0 -5 9 -14
20 -21 11 -7 20 -18 20 -26 0 -7 9 -16 20 -19 12 -3 20 -14 20 -27 0 -11 4
-19 9 -15 5 3 12 -3 16 -14 3 -11 17 -26 30 -35 14 -9 25 -26 25 -39 0 -18 2
-19 10 -7 8 12 10 11 10 -8 0 -12 7 -25 15 -28 8 -4 15 -13 15 -21 0 -8 4 -12
9 -9 5 3 12 -6 15 -20 4 -15 9 -24 13 -21 7 8 32 -16 26 -25 -2 -5 3 -8 12 -8
9 0 14 -4 10 -9 -3 -5 2 -16 11 -25 8 -9 13 -20 9 -25 -3 -6 4 -8 15 -6 11 2
18 0 15 -6 -4 -5 -1 -9 4 -9 6 0 10 -3 10 -7 -3 -20 2 -34 11 -28 6 3 10 -1
10 -9 0 -9 7 -16 16 -16 8 0 12 -4 9 -10 -3 -5 0 -10 7 -10 10 0 9 -3 -2 -11
-12 -9 -10 -10 8 -6 18 4 21 3 12 -8 -8 -10 -6 -15 9 -20 12 -3 21 -13 21 -21
0 -8 7 -17 15 -20 8 -4 12 -11 8 -17 -4 -7 0 -8 11 -4 14 6 16 3 11 -14 -5
-14 -3 -19 3 -15 13 8 35 -28 24 -38 -3 -4 1 -4 11 0 13 4 17 1 17 -14 0 -12
9 -23 20 -27 11 -3 20 -12 20 -19 0 -7 9 -22 20 -34 11 -12 20 -26 20 -32 0
-6 5 -8 10 -5 6 3 10 -1 10 -10 0 -9 5 -13 10 -10 6 3 10 -3 10 -14 0 -12 5
-21 11 -21 5 0 7 -5 4 -10 -4 -6 -3 -10 2 -9 4 1 15 1 23 0 13 -1 13 -2 0 -11
-12 -8 -11 -10 7 -10 13 0 22 -3 22 -7 -3 -21 2 -33 16 -33 8 0 15 -4 15 -10
0 -5 7 -10 15 -10 8 0 15 -4 15 -10 0 -5 13 -10 28 -10 15 0 34 -6 41 -13 11
-10 12 -9 6 2 -6 11 -3 13 13 9 12 -4 22 -2 22 4 0 5 5 6 12 2 8 -5 9 -2 5 10
-4 11 -3 15 4 11 14 -9 61 3 54 14 -3 5 9 14 25 20 17 5 30 15 30 20 0 6 7 8
15 5 9 -4 15 0 15 10 0 9 6 15 13 13 6 -1 11 4 9 11 -1 8 2 11 7 8 5 -4 20 4
32 16 12 13 19 16 15 8 -4 -8 1 -5 10 8 9 12 25 22 35 22 19 0 26 14 12 23 -5
2 -2 2 5 0 7 -1 25 10 39 25 15 15 23 21 19 15 -4 -7 -3 -13 3 -13 5 0 12 9
16 19 4 13 13 18 26 16 11 -2 17 0 14 4 -5 9 24 26 38 22 5 -1 6 2 3 7 -3 5 6
14 19 20 14 7 25 16 25 22 0 6 5 8 10 5 5 -3 10 -1 10 4 0 6 7 11 15 11 8 0
15 4 15 9 0 5 11 12 25 15 14 4 23 11 20 16 -3 6 1 10 9 10 9 0 16 5 16 12 0
6 3 8 7 5 3 -4 12 2 20 13 8 11 23 20 34 20 10 0 19 5 19 11 0 5 6 7 13 3 8
-5 7 -2 -2 9 -12 15 -12 17 3 11 9 -3 16 -1 16 6 0 6 5 8 10 5 6 -3 10 -1 10
5 0 6 4 9 8 6 5 -3 16 4 25 15 10 11 23 17 30 13 6 -4 9 -4 5 1 -10 10 19 38
32 30 6 -3 14 3 18 14 4 11 12 21 17 23 6 2 9 7 7 12 -2 5 5 3 14 -5 12 -9 15
-9 10 -1 -4 6 -3 12 2 12 5 0 19 9 32 20 13 11 29 20 35 20 7 0 16 7 19 16 4
9 13 14 21 10 8 -3 14 -2 14 2 -3 19 2 30 17 36 12 5 14 3 8 -7 -5 -7 -1 -4
10 8 10 11 23 19 28 17 5 -1 11 5 14 13 4 8 16 15 28 15 17 0 18 2 6 10 -12 8
-11 10 8 10 12 0 22 5 22 10 0 6 9 10 20 10 11 0 20 5 20 11 0 5 -6 7 -12 3
-8 -4 -10 -3 -5 2 5 5 12 9 15 9 4 0 13 4 20 8 6 5 12 5 12 1 0 -4 14 8 31 27
18 19 28 27 24 19 -8 -13 -7 -13 11 0 10 8 25 23 32 33 7 9 20 17 28 17 8 0
14 5 14 12 0 6 3 8 6 5 4 -4 15 3 25 15 13 14 19 16 19 7 0 -8 7 -4 16 9 8 12
20 19 26 16 7 -5 9 -1 5 9 -4 11 -1 15 13 12 11 -2 19 -1 17 3 -1 4 2 8 6 9 5
1 15 10 24 20 9 11 12 12 8 3 -4 -8 2 -5 13 8 11 12 28 22 37 22 10 0 15 7 13
17 -2 14 4 18 24 17 15 -1 27 2 26 5 -2 20 4 30 16 25 8 -3 17 0 22 7 5 8 3
10 -6 4 -8 -5 -11 -4 -6 3 3 6 15 9 26 7 12 -2 18 0 15 6 -4 5 -1 9 5 9 6 0 8
5 5 10 -4 6 -3 10 2 9 24 -4 43 3 43 16 0 8 3 14 8 14 19 -3 33 2 27 10 -5 9
24 24 50 26 6 0 9 6 8 13 -2 6 8 14 22 18 14 3 25 9 25 14 0 4 15 15 34 25 19
11 32 23 29 28 -3 5 0 8 7 5 8 -2 22 4 32 14 10 10 23 16 28 13 6 -3 7 1 4 9
-4 11 0 16 10 16 9 0 25 9 36 20 12 12 25 18 30 15 6 -4 10 1 10 10 0 9 5 13
10 10 6 -3 13 1 16 10 4 9 12 14 19 11 12 -4 30 19 27 35 0 3 5 6 13 6 8 0 12
-5 9 -11 -3 -6 1 -3 9 7 8 9 20 17 26 17 7 0 9 4 6 10 -3 5 6 12 20 16 13 3
23 10 20 14 -3 4 7 11 23 15 33 8 54 24 46 36 -3 5 3 6 12 2 14 -5 16 -3 11
12 -6 15 -5 16 8 5 13 -11 16 -11 13 1 -2 9 4 13 14 11 12 -2 16 2 12 13 -4
10 0 15 13 15 11 0 25 10 32 23 6 12 9 14 7 5 -4 -12 -1 -15 10 -11 8 3 13 12
10 20 -3 8 -2 11 3 8 5 -3 17 5 27 17 14 20 16 21 10 3 -5 -17 -4 -18 6 -4 7
8 21 18 31 22 9 3 17 11 17 16 0 6 8 7 18 4 14 -6 15 -4 4 9 -10 13 -10 18 -1
24 8 4 9 3 5 -4 -4 -7 -3 -12 3 -12 5 0 13 5 16 10 4 6 11 7 17 4 8 -5 9 -1 5
10 -4 9 -3 15 2 12 5 -3 19 3 31 14 12 11 27 17 32 14 4 -3 7 -2 6 3 -2 4 2
10 7 12 19 9 33 26 27 35 -3 5 0 6 7 2 7 -5 19 0 27 10 9 11 12 13 8 5 -5 -10
-3 -12 5 -7 7 5 10 15 6 23 -4 12 -2 13 8 5 10 -9 17 -6 27 8 8 11 19 20 25
20 6 0 20 7 31 16 10 8 13 12 5 8 -9 -5 -12 -3 -7 5 4 6 11 9 16 6 5 -3 18 3
30 15 11 11 23 21 28 23 4 1 6 6 4 10 -1 5 2 6 8 2 5 -3 10 -2 10 4 0 6 7 8
15 4 10 -3 15 0 13 8 -2 8 4 13 14 13 10 -1 15 2 12 7 -5 8 10 13 29 10 5 -1
6 3 2 9 -3 5 -1 10 5 10 6 0 8 6 4 13 -4 6 -4 9 0 5 4 -3 19 0 33 7 15 8 30
12 35 9 4 -3 7 97 7 221 0 124 -3 225 -5 225 -3 0 -7 -7 -10 -15z m-4194
-1525 c0 -5 -2 -10 -4 -10 -3 0 -8 5 -11 10 -3 6 -1 10 4 10 6 0 11 -4 11 -10z"/>
<path d="M4117 3673 c-10 -9 -9 -23 1 -23 5 0 9 7 9 15 0 17 -1 18 -10 8z"/>
<path d="M782 3144 c10 -10 20 -16 22 -13 3 3 -5 11 -17 18 -21 13 -21 12 -5
-5z"/>
<path d="M4984 2915 c5 -15 4 -16 -9 -5 -13 11 -19 8 -17 -11 1 -3 -5 -6 -11
-6 -18 0 -97 -52 -97 -63 0 -6 -6 -10 -13 -10 -7 0 -18 -9 -24 -19 -8 -12 -20
-18 -33 -16 -11 2 -19 -1 -17 -8 1 -7 -4 -11 -10 -9 -7 1 -13 -5 -13 -14 0 -8
-4 -12 -10 -9 -5 3 -21 -5 -34 -18 -14 -14 -27 -22 -30 -19 -3 3 -6 0 -6 -7 0
-7 -4 -10 -8 -7 -5 3 -16 -3 -25 -12 -22 -24 -45 -42 -54 -43 -5 -1 -7 -5 -5
-10 1 -5 -5 -9 -14 -9 -9 0 -12 -5 -8 -12 5 -8 0 -7 -11 2 -17 14 -18 13 -12
-2 4 -13 1 -16 -13 -13 -11 2 -19 0 -17 -5 1 -4 -2 -8 -7 -8 -5 0 -13 -7 -18
-16 -5 -9 -14 -13 -20 -10 -8 5 -9 1 -4 -11 6 -16 4 -16 -11 -4 -9 8 -14 9
-10 3 4 -7 -9 -19 -30 -30 -21 -10 -50 -32 -66 -49 -21 -23 -26 -25 -21 -10 4
15 1 13 -12 -6 -11 -14 -25 -24 -33 -21 -8 3 -11 0 -7 -7 4 -6 1 -11 -9 -11
-8 0 -23 -9 -32 -20 -10 -11 -23 -20 -29 -20 -6 0 -19 -10 -28 -22 -9 -13 -14
-16 -10 -8 4 9 -1 7 -13 -5 -11 -11 -18 -24 -16 -28 3 -5 -5 -4 -17 3 -15 8
-20 8 -16 1 4 -6 0 -11 -9 -11 -9 0 -14 -4 -10 -9 6 -10 -22 -29 -40 -29 -5 1
-16 -10 -22 -23 -7 -13 -13 -21 -13 -16 0 4 -14 0 -30 -8 -17 -9 -28 -20 -25
-25 5 -9 -23 -15 -47 -11 -4 0 -4 -7 -1 -16 5 -13 2 -15 -11 -10 -9 4 -15 3
-13 -1 5 -7 -16 -30 -30 -35 -5 -1 -7 -5 -6 -9 2 -4 -4 -5 -12 -2 -8 4 -15 1
-15 -6 0 -6 -4 -8 -10 -5 -5 3 -10 -2 -10 -12 0 -14 -2 -15 -9 -4 -7 11 -10 9
-15 -7 -4 -12 -13 -19 -21 -16 -8 3 -21 -6 -31 -21 -12 -18 -23 -25 -36 -22
-15 4 -17 3 -8 -8 10 -12 8 -13 -9 -10 -12 2 -19 0 -16 -6 6 -8 -8 -13 -28
-10 -5 1 -6 -3 -2 -8 7 -12 -29 -33 -40 -23 -5 4 -5 1 -1 -5 7 -12 -5 -18 -27
-14 -5 1 -5 -4 -1 -10 5 -9 2 -10 -9 -6 -12 4 -14 2 -10 -10 4 -10 2 -14 -4
-10 -13 8 -56 -27 -46 -37 4 -4 -1 -4 -11 0 -13 5 -17 4 -13 -3 4 -6 -6 -16
-24 -22 -21 -7 -28 -15 -23 -23 5 -8 1 -7 -11 2 -11 9 -16 10 -11 3 4 -8 1
-13 -8 -13 -9 0 -16 -5 -16 -10 0 -6 -11 -15 -25 -20 -14 -5 -25 -14 -25 -20
0 -6 -4 -8 -10 -5 -5 3 -10 1 -10 -4 0 -6 -7 -11 -15 -11 -9 0 -18 -7 -21 -15
-4 -8 -11 -12 -17 -8 -7 4 -8 0 -3 -12 5 -15 4 -16 -8 -6 -11 9 -16 9 -22 0
-5 -8 -3 -9 6 -4 9 5 11 4 6 -3 -4 -7 -14 -12 -22 -12 -8 0 -17 -7 -20 -15 -4
-8 -10 -12 -15 -9 -5 3 -9 0 -9 -6 0 -6 -5 -8 -12 -4 -7 5 -9 2 -6 -7 4 -10
-1 -15 -15 -17 -12 0 -23 -6 -25 -12 -2 -5 -9 -7 -15 -3 -7 4 -8 0 -4 -11 4
-9 3 -15 -1 -12 -5 3 -25 -6 -46 -20 -20 -14 -42 -22 -49 -18 -7 5 -6 0 3 -12
8 -10 11 -16 6 -12 -12 10 -48 -11 -41 -22 3 -6 -1 -7 -9 -4 -9 3 -16 1 -16
-6 0 -6 -5 -8 -12 -4 -7 5 -9 2 -5 -9 4 -11 1 -15 -14 -12 -12 2 -19 -2 -19
-11 0 -8 -5 -12 -10 -9 -6 3 -13 0 -16 -9 -3 -8 -12 -12 -19 -10 -8 3 -20 -6
-29 -23 -8 -15 -15 -21 -16 -13 0 10 -7 7 -20 -10 -11 -14 -20 -21 -20 -17 0
5 -7 1 -16 -7 -8 -9 -20 -13 -26 -10 -7 4 -8 2 -4 -4 7 -11 -26 -35 -38 -27
-3 3 -4 2 -1 -1 6 -9 -25 -38 -42 -40 -9 -2 -22 -12 -30 -23 -8 -12 -19 -19
-24 -15 -12 7 -41 -15 -33 -27 3 -5 -3 -6 -12 -2 -12 4 -15 3 -10 -5 7 -11 -6
-17 -28 -13 -5 1 -6 -5 -3 -13 4 -10 1 -13 -9 -9 -7 3 -14 0 -14 -6 0 -6 -6
-10 -13 -9 -6 2 -11 -3 -9 -10 1 -8 -2 -11 -9 -6 -7 4 -20 -3 -31 -17 -11 -13
-16 -18 -12 -10 5 9 3 12 -4 7 -7 -4 -12 -15 -13 -24 0 -12 -2 -13 -6 -4 -4
10 -9 7 -20 -8 -8 -12 -21 -19 -28 -17 -13 5 -47 -27 -39 -37 2 -3 1 -4 -2 -1
-10 7 -45 -15 -39 -25 3 -5 -4 -7 -16 -5 -18 4 -19 2 -7 -12 10 -13 10 -15 0
-9 -7 4 -19 2 -27 -4 -8 -6 -19 -9 -24 -6 -6 4 -8 -2 -6 -12 2 -13 -2 -19 -13
-18 -10 0 -16 -5 -14 -13 3 -12 0 -12 -12 -2 -12 10 -16 8 -21 -10 -6 -17 -9
-19 -16 -8 -7 11 -9 10 -9 -5 0 -11 -3 -16 -7 -13 -3 4 -20 -8 -36 -26 -17
-17 -27 -27 -24 -21 3 6 0 11 -8 11 -8 0 -12 -4 -9 -9 3 -4 0 -8 -6 -8 -6 0
-8 -5 -4 -12 4 -6 3 -8 -4 -4 -6 3 -13 2 -17 -4 -4 -6 -10 -8 -15 -5 -5 3 -12
0 -16 -6 -5 -8 -3 -9 6 -4 9 5 11 4 6 -3 -4 -7 -12 -12 -17 -12 -6 0 -18 -8
-27 -18 -10 -10 -13 -11 -7 -2 6 10 2 9 -12 -4 -13 -10 -20 -24 -16 -30 4 -6
-1 -5 -10 3 -15 12 -17 11 -17 -2 0 -9 -5 -19 -12 -23 -7 -4 -8 -3 -4 4 4 7 1
12 -8 12 -20 0 -68 48 -61 61 4 5 2 9 -3 9 -5 0 -19 9 -31 19 -16 14 -18 21
-9 24 9 4 7 6 -4 6 -9 1 -20 10 -23 21 -4 11 -10 18 -14 16 -4 -3 -13 9 -20
25 -7 16 -16 27 -20 25 -4 -3 -13 9 -20 25 -7 16 -17 27 -22 23 -5 -3 -9 0 -9
7 0 6 -8 18 -17 26 -11 9 -12 12 -3 7 9 -4 7 2 -5 13 -11 11 -24 18 -29 15 -5
-3 -6 0 -2 7 4 6 1 14 -8 17 -8 3 -12 12 -9 20 5 13 -8 19 -30 15 -5 -1 -6 3
-2 9 3 5 0 10 -7 10 -9 0 -9 3 2 10 15 10 14 10 -22 14 -7 0 -13 8 -14 16 -2
35 -5 40 -18 40 -7 0 -20 8 -27 17 -13 17 -13 17 6 3 19 -14 19 -14 6 3 -7 9
-21 17 -30 18 -10 0 -12 2 -3 6 8 3 -1 17 -25 40 -21 20 -31 32 -23 27 10 -6
9 -3 -2 8 -10 9 -18 21 -18 28 0 6 -4 8 -10 5 -5 -3 -10 0 -10 8 0 8 -10 22
-23 31 -12 9 -16 14 -8 10 10 -5 12 -3 7 5 -5 7 -15 10 -23 6 -14 -5 -14 -3
-2 12 9 11 10 14 2 9 -8 -4 -13 -1 -13 9 0 9 -5 13 -10 10 -5 -3 -10 1 -10 9
0 9 -4 16 -10 16 -5 0 -10 7 -10 16 0 8 -4 12 -10 9 -5 -3 -10 -1 -10 5 0 6
-12 23 -27 37 -16 14 -19 20 -8 12 22 -14 15 -6 -52 66 -15 17 -26 36 -25 42
2 8 -3 10 -13 7 -10 -4 -15 0 -15 13 0 10 -11 27 -25 37 -13 10 -22 22 -19 27
3 5 -1 9 -9 9 -8 0 -21 8 -28 18 -13 15 -12 16 4 3 15 -12 17 -12 11 3 -3 9
-12 16 -20 16 -8 0 -14 7 -14 15 0 9 -7 18 -15 21 -8 4 -12 10 -9 15 3 5 -2 9
-10 9 -8 0 -18 5 -22 12 -4 6 -3 8 4 5 6 -5 6 2 -1 18 -7 13 -13 20 -15 15 -2
-6 -10 -3 -18 5 -9 8 -12 19 -9 25 3 6 -4 14 -17 19 -13 6 -19 10 -14 10 5 1
-1 10 -14 21 -13 11 -19 20 -14 20 5 0 1 5 -8 11 -10 5 -18 17 -18 24 0 8 -7
15 -17 15 -9 0 -13 3 -10 7 4 3 -2 13 -14 21 -11 8 -18 20 -15 29 3 8 2 11 -4
8 -9 -6 -46 53 -42 68 1 4 -6 3 -16 -2 -14 -7 -19 -6 -19 4 0 8 5 12 11 9 6
-3 0 5 -14 18 -14 13 -33 36 -44 52 -14 23 -20 26 -28 15 -7 -10 -7 -7 -3 9 4
15 1 24 -9 28 -9 3 -16 13 -16 20 0 8 -10 19 -22 24 -13 5 -17 9 -10 9 7 1 -4
17 -25 36 -21 19 -34 35 -30 35 4 0 -1 9 -12 21 -11 12 -24 18 -30 14 -7 -3
-11 -3 -10 2 1 4 0 11 -1 16 -1 4 -3 11 -4 16 0 5 -12 19 -25 30 -13 12 -19
21 -12 21 9 0 8 5 -3 15 -8 8 -20 15 -26 15 -6 0 -8 5 -5 10 3 6 0 10 -7 10
-8 0 -14 10 -15 22 -2 22 -21 40 -35 32 -4 -3 -8 4 -8 16 0 11 -7 23 -15 26
-8 4 -12 10 -9 15 3 5 -2 9 -11 9 -11 0 -15 5 -12 14 3 8 -1 17 -9 20 -10 4
-12 2 -8 -6 4 -7 3 -8 -5 -4 -9 6 -9 11 0 22 7 9 8 14 3 13 -5 -1 -15 -1 -23
0 -11 1 -11 4 -1 17 8 8 9 14 4 13 -15 -4 -44 12 -39 21 3 5 -4 11 -15 15 -11
3 -20 13 -20 21 0 8 -4 13 -9 10 -5 -4 -12 0 -14 6 -3 7 -6 -116 -6 -274 -1
-231 2 -288 12 -288 7 0 29 -18 47 -39 19 -22 39 -37 43 -34 5 3 4 -4 -2 -16
-9 -16 -9 -20 2 -15 8 3 20 -3 28 -13 12 -16 12 -17 -1 -8 -10 6 -9 4 2 -6 9
-9 14 -19 11 -23 -4 -3 2 -6 11 -6 12 0 16 -5 12 -16 -3 -8 -2 -13 3 -10 5 3
15 -2 22 -11 12 -14 12 -16 -1 -9 -8 4 2 -8 23 -26 20 -18 37 -39 37 -45 0 -7
5 -13 11 -13 5 0 7 -5 3 -12 -5 -8 -2 -9 10 -5 9 4 15 3 11 -2 -6 -11 5 -42
14 -37 3 2 15 -6 26 -17 11 -11 13 -16 5 -12 -9 5 -7 -1 5 -15 37 -44 43 -49
50 -42 5 4 6 -1 2 -10 -6 -16 17 -34 38 -29 6 1 5 -3 -2 -10 -10 -10 -8 -16 9
-31 12 -10 25 -18 31 -18 5 0 3 -8 -4 -17 -7 -10 -10 -15 -6 -12 10 8 60 -38
76 -69 7 -12 17 -20 23 -16 7 4 8 3 4 -4 -4 -7 -1 -12 6 -12 9 0 9 -3 -2 -10
-9 -6 -10 -10 -3 -10 19 0 63 -48 50 -54 -7 -2 -4 -5 6 -5 9 -1 17 -8 17 -17
0 -8 4 -12 10 -9 5 3 10 -3 10 -14 0 -12 6 -20 13 -18 6 1 11 -3 10 -10 -2 -7
14 -24 34 -38 21 -14 33 -25 27 -25 -5 0 -14 3 -20 8 -5 4 1 -2 13 -13 13 -12
23 -24 23 -29 0 -13 27 -35 34 -28 4 3 4 -1 0 -11 -4 -12 -1 -17 10 -17 14 0
20 -12 17 -32 0 -5 6 -8 15 -8 8 0 12 -4 9 -10 -3 -5 2 -10 12 -10 15 0 16 -2
3 -10 -13 -8 -12 -10 3 -10 9 0 17 -7 17 -16 0 -8 5 -12 10 -9 6 3 10 -1 10
-9 0 -9 4 -16 10 -16 5 0 7 -7 3 -15 -3 -9 -2 -15 3 -14 22 4 48 -2 39 -9 -12
-9 -19 -36 -7 -28 5 3 18 -2 28 -10 10 -9 12 -13 4 -9 -10 4 -9 2 3 -8 9 -8
17 -19 17 -25 0 -6 8 -17 18 -24 9 -7 23 -25 31 -40 8 -15 18 -25 23 -22 4 3
8 -2 8 -10 0 -9 7 -16 16 -16 8 0 13 -4 9 -10 -3 -5 12 -28 35 -51 22 -23 40
-46 40 -51 0 -5 4 -6 10 -3 6 3 7 -1 4 -9 -4 -10 -1 -16 9 -16 13 0 31 -33 28
-52 0 -4 6 -5 14 -2 10 4 15 0 15 -16 0 -11 5 -18 10 -15 6 3 10 -1 10 -10 0
-8 7 -18 15 -21 8 -4 12 -11 8 -17 -4 -6 0 -8 10 -4 12 4 14 2 10 -10 -4 -11
-2 -14 5 -9 7 4 12 1 12 -8 0 -9 5 -16 11 -16 5 0 8 -4 5 -9 -3 -5 1 -11 9
-15 8 -3 15 -13 15 -23 0 -15 2 -16 10 -3 8 12 10 11 10 -6 0 -12 7 -25 16
-28 8 -3 13 -10 9 -15 -3 -5 4 -12 15 -16 11 -4 20 -15 20 -26 0 -11 5 -17 10
-14 6 3 10 1 10 -5 0 -12 4 -17 49 -69 17 -19 28 -38 26 -42 -3 -4 5 -9 17
-12 12 -4 19 -9 16 -12 -7 -8 34 -51 44 -48 5 2 8 -5 8 -14 0 -9 3 -14 6 -10
4 3 15 -4 25 -16 10 -12 18 -18 19 -14 0 5 7 1 16 -8 12 -12 19 -13 30 -4 11
9 14 8 14 -2 0 -11 3 -11 11 1 8 12 12 12 16 2 4 -10 9 -9 20 5 8 10 12 12 8
6 -3 -7 -3 -13 0 -13 10 0 35 27 29 32 -2 3 10 5 28 5 27 -1 32 2 30 17 -2 10
1 15 7 12 5 -4 15 3 21 14 6 11 15 20 21 20 6 0 7 -6 3 -13 -4 -6 4 -1 18 13
13 14 23 28 21 31 -1 4 5 6 15 5 10 0 16 5 14 13 -3 12 -1 12 14 0 10 -8 15
-9 11 -2 -8 12 31 46 44 38 4 -3 10 2 13 11 3 8 11 12 16 9 6 -4 9 -1 8 7 -2
7 5 12 15 12 9 -1 17 4 17 12 0 7 5 16 12 20 7 5 8 3 3 -7 -7 -11 -6 -12 7 -2
8 7 18 9 23 5 4 -4 6 0 3 8 -3 10 9 22 36 36 23 12 40 26 39 32 -2 6 7 9 18 7
18 -4 19 -2 7 12 -7 10 -8 14 -1 10 13 -8 83 30 83 45 0 5 4 6 10 3 6 -3 10
-1 10 4 0 6 5 11 11 11 18 0 59 37 51 45 -4 5 -1 5 5 1 8 -4 23 3 38 18 14 14
25 22 25 19 0 -4 7 2 16 13 8 10 13 12 9 4 -4 -8 2 -6 12 6 10 12 26 24 36 27
11 4 15 12 11 18 -4 8 -3 9 4 5 7 -4 12 -1 12 6 0 9 3 9 10 -2 8 -13 10 -13
10 2 0 11 5 15 15 12 9 -4 15 0 15 10 0 9 6 15 13 14 6 -2 11 3 9 10 -1 6 1
11 5 10 15 -3 63 22 63 32 0 6 5 8 10 5 6 -3 10 1 10 10 0 9 4 13 10 10 5 -3
22 7 37 22 14 15 23 22 19 16 -12 -22 1 -14 38 21 21 21 37 30 40 23 2 -7 5
-3 5 7 1 11 4 16 8 12 4 -3 13 4 21 16 11 19 12 20 8 3 -6 -19 -5 -19 8 -3 7
10 18 18 24 18 5 0 12 7 16 15 3 8 11 14 18 13 7 -2 12 3 13 11 0 8 6 16 14
19 9 3 11 0 5 -9 -7 -12 -5 -12 9 0 9 7 14 17 11 22 -3 5 3 6 12 2 12 -4 15
-3 10 5 -6 11 5 17 27 13 4 0 7 7 7 16 0 15 2 16 10 3 9 -15 11 -13 14 13 1 6
10 11 20 9 12 -2 16 1 10 9 -5 9 -2 10 11 5 15 -5 16 -4 5 9 -11 13 -10 14 3
9 9 -3 23 3 33 15 13 15 20 17 26 8 5 -8 8 -6 8 7 0 12 5 16 16 12 8 -3 12 -2
9 4 -3 6 -1 10 5 10 6 0 8 5 4 12 -4 7 -3 8 4 4 7 -4 23 4 36 17 16 16 27 21
30 14 2 -7 5 -4 5 7 1 12 6 16 17 12 11 -4 15 -2 11 8 -4 10 0 14 14 11 11 -2
17 0 14 6 -4 5 -1 9 5 9 6 0 9 4 5 9 -3 6 4 8 15 6 11 -2 18 0 15 6 -4 5 -1 9
5 9 6 0 23 12 37 28 15 15 23 22 20 15 -8 -13 18 -12 30 2 4 4 2 5 -4 1 -7 -4
-13 -2 -13 3 0 6 7 11 15 11 8 0 15 5 15 10 0 6 6 9 13 8 6 -2 11 3 9 10 -1 8
2 10 8 7 6 -4 22 5 36 20 13 14 28 24 33 21 5 -3 12 1 15 10 3 8 10 12 16 9 5
-3 10 1 10 9 0 8 5 18 12 22 7 4 8 3 4 -4 -5 -8 -2 -10 8 -6 9 3 13 10 10 15
-5 8 9 13 29 10 4 0 7 7 7 16 0 14 2 15 9 5 6 -10 10 -8 14 8 3 13 11 21 19
18 7 -3 22 3 32 13 13 13 15 19 6 19 -7 0 -10 3 -7 6 4 4 14 1 24 -7 9 -8 14
-9 11 -4 -6 10 22 42 32 38 3 -2 5 1 5 6 0 5 4 13 9 18 5 5 6 3 2 -4 -4 -7 -2
-13 3 -13 6 0 11 7 11 15 0 8 3 14 8 14 20 -3 32 2 26 13 -4 6 -3 8 4 4 6 -3
17 0 25 8 8 8 18 12 22 8 5 -4 6 0 3 8 -4 11 1 16 15 17 11 1 25 7 31 14 8 9
7 10 -3 4 -9 -5 -12 -4 -7 3 4 6 13 9 20 6 7 -3 16 2 20 11 3 9 11 13 18 9 8
-5 9 -2 5 10 -4 9 -3 15 3 11 11 -7 72 29 63 38 -5 6 4 9 23 6 3 0 14 9 23 20
10 11 22 17 26 13 5 -4 5 1 2 10 -3 10 -2 20 4 23 5 4 8 3 7 -2 -2 -4 2 -8 7
-8 5 0 9 4 7 8 -1 5 2 6 8 2 5 -3 13 1 16 9 3 9 10 13 15 10 5 -3 9 2 9 12 0
14 2 15 17 3 9 -8 14 -9 10 -3 -6 11 28 51 42 47 3 0 5 4 3 10 -2 7 0 9 3 5
10 -10 67 21 60 32 -4 6 1 7 11 3 14 -5 16 -3 11 11 -4 10 -3 15 3 11 6 -3 10
0 10 7 0 9 3 9 10 -2 7 -12 10 -12 10 -1 0 7 6 11 15 7 8 -3 14 -2 14 2 -3 20
2 33 11 27 6 -3 10 -1 10 5 0 7 7 9 16 6 8 -3 12 -2 9 4 -3 6 -1 10 5 10 6 0
8 5 4 13 -5 7 -2 7 10 -2 14 -12 17 -12 14 0 -2 8 7 15 19 17 13 2 30 13 38
25 9 12 21 22 28 22 6 1 11 5 10 11 -1 5 8 16 20 24 21 12 21 12 7 -6 -14 -18
-14 -18 6 -1 11 9 24 14 28 10 4 -4 4 1 0 12 -4 11 -4 17 1 13 4 -4 14 0 22
10 10 11 12 12 8 2 -4 -8 5 -2 18 14 14 16 30 25 36 22 6 -4 11 0 11 11 0 14
2 15 9 5 6 -10 10 -9 14 8 4 16 11 20 30 16 l26 -4 1 218 c0 160 -3 220 -11
226 -9 5 -10 2 -5 -11z m-94 -70 c-7 -9 -15 -13 -19 -10 -3 3 1 10 9 15 21 14
24 12 10 -5z"/>
<path d="M2790 2739 c0 -5 5 -7 10 -4 6 3 10 8 10 11 0 2 -4 4 -10 4 -5 0 -10
-5 -10 -11z"/>
<path d="M335 2500 c3 -5 8 -10 11 -10 2 0 4 5 4 10 0 6 -5 10 -11 10 -5 0 -7
-4 -4 -10z"/>
<path d="M1470 2291 c0 -6 4 -13 10 -16 6 -3 7 1 4 9 -7 18 -14 21 -14 7z"/>
<path d="M4415 2100 c-3 -5 -1 -10 4 -10 6 0 11 5 11 10 0 6 -2 10 -4 10 -3 0
-8 -4 -11 -10z"/>
<path d="M1666 2067 c3 -10 9 -15 12 -12 3 3 0 11 -7 18 -10 9 -11 8 -5 -6z"/>
<path d="M990 1966 c0 -2 7 -7 16 -10 8 -3 12 -2 9 4 -6 10 -25 14 -25 6z"/>
</g>
</svg>
